<svg xmlns="http://www.w3.org/2000/svg" width="120.688" height="57.208"><g data-name="Group 4165" fill="#fff"><g data-name="Group 3691" fill-rule="evenodd"><path data-name="Path 3987" d="M58.985 22.146l2.208.321a3.266 3.266 0 01.6-.448 4.325 4.325 0 013.481-.315c-.109-.331-.3-.826-.513-1.333a59.106 59.106 0 00-5.776 1.775z"/><path data-name="Path 3988" d="M58.183 22.687l2.665.168a7.569 7.569 0 00-.969 2.758l-2.719.962.545-2.374c.147-.507.308-1.012.479-1.514z"/><path data-name="Path 3989" d="M57.521 26.936l2.251-.743c-.113.656-.2 1.332-.268 1.971l-1.983-1.228z"/><path data-name="Path 3990" d="M57.005 27.123l2.46 1.44c-.058.608-.1 1.169-.122 1.631l-2.819 1.908c0-.513.016-1.031.047-1.55l.263-2.442q.076-.493.171-.987z"/><path data-name="Path 3991" d="M63.377 30.467l1.015.687c.111-.239.217-.481.314-.72a6.83 6.83 0 00.393-1.25 6.6 6.6 0 00-1.643 1.209l-.079.074z"/><path data-name="Path 3992" d="M63.082 30.755l1.171.719a4.041 4.041 0 01-.514.955l-1.095-1.235c.145-.147.29-.294.438-.44z"/><path data-name="Path 3993" d="M62.411 31.427l1.5 1.848c-.436.942-.965 1.871-1.328 2.835l-5.958-3.3 2.692-2.159c-.019.684.083 1.586.81 1.87.706.276 1.451-.274 1.928-.744q.177-.174.351-.35z"/><path data-name="Path 3994" d="M58.654 34.591l-.828.9.03.178a14.561 14.561 0 00.381 1.621l2.435 1.08-2.018-3.774z"/><path data-name="Path 3995" d="M59.164 39.9l.048.113 1.345.027 1.758 2.142a10.194 10.194 0 01-.629-2.875l-3.285-1.5c.226.693.488 1.374.763 2.091z"/><path data-name="Path 3996" d="M63.768 16.987l6.917-2.565.172 8.825-.032.015-.031.014-.023.01-.014.006-.019.008-.014.006-.026.01-.032.014-.031.013-.032.013-.058.022-.013.005-.02.008-.015.005-.021.008-.03.011-.033.012-.03.01-.022.008-.017.005-.015.005-.021.007-.021.006h-.006l-.028.008-.054.016h-.019l-.026.008-.028.008h-.01l-.023.007h-.01l-.027.008-.033.009-.034.009-.021.006h-.024l-.021.006h-.045l-.02.005-.031.008-.034.008-.03.007-.025.006h-.041l-.023.005h-.011l-.029.007-.034.008-.032.007h-.008l-.026.006h-.103l-.034.007-.034.006h-.006l-.028.005h-.104l-.032.006-.034.006-.03.005h-.01l-.041.006h-.041l-.041.007h-.005l-.035.006-.033.005h-.103l-.028.005h-.007l-.035.006c-.447.071-1.251-.544-1.582-.8l-.041-.033-.01-.008-.012-.009-.014-.011-.008-.005-.007-.006-.014-.011-.012-.01-.011-.009-.014-.011h-.006l-.008-.007-.014-.011-.014-.012-.009-.007h-.005l-.014-.011-.01-.008-.013-.01-.014-.012-.008-.006-.007-.005-.014-.012-.012-.01-.012-.009-.014-.012h-.006l-.008-.007-.015-.012-.023-.019-.014-.012-.01-.009-.013-.01-.015-.012-.008-.006-.006-.006-.014-.012-.012-.01-.011-.01-.015-.012h-.006l-.008-.007-.015-.012-.013-.011-.01-.008-.014-.012-.01-.008-.014-.011-.014-.012-.008-.006-.007-.005-.014-.012-.012-.01-.012-.009-.014-.012h-.007l-.008-.007-.014-.012-.014-.011-.01-.008-.014-.012h-.005l-.01-.008-.014-.011-.015-.012-.008-.007h-.006l-.015-.012-.012-.009-.012-.01-.015-.011-.387-.327-2.069-4.975z"/><path data-name="Path 3997" d="M76.304 11.596l-2.34 9.509-.5.38c-.433.332-.876.658-1.323.971l-.013.01-.013.009-.012.008-.011.008-.011.008-.01.007-.01.007-.009.007h-.005l-.009.006-.008.006h-.021l-.007.005h-.013l-.007.005h-.006l-.008.006h-.006l-.008.006-.009.007-.01.007-.01.008-.011.008-.026.017-.014.009-.013.009-.014.009-.013.009-.012.008-.012.008-.012.008-.01.007-.01.007-.009.006h-.005l-.008.006h-.005l-.009.006h-.028l-.007.005h-.02l-.008.006h-.005l-.009.006-.01.007-.01.007-.011.007-.012.008-.012.008-.012.008-.014.008-.014.009-.014.008-.013.008-.012.008-.011.007-.012.007-.011.006-.01.006-.01.006-.01.006h-.005l-.008.005H71.4l-.008.005h-.006l-.009.005-.222-9 5.252-2.433z"/><path data-name="Path 3998" d="M59.905 18.506l3.484-1.38 1.147 2.781-6.049 1.923c.418-1.13.893-2.241 1.418-3.324z"/><path data-name="Path 3999" d="M88.919 6.644l2 2.117a5.932 5.932 0 00-2.427-1.153l.123-1.015.3.05z"/><path data-name="Path 4000" d="M89.303 6.709l3.692 3.413-.721-2.688a23.593 23.593 0 00-2.971-.724z"/><path data-name="Path 4001" d="M92.712 7.576l.731 2.723 1.088-1.99a18.236 18.236 0 00-1.818-.733z"/><path data-name="Path 4002" d="M93.342 11.404c.691.033 1.943.116 2.622.188l.3.032c.163-.309.31-.739.079-1.031-.4-.5-.222-.652-.632-1.255a3.188 3.188 0 00-.9-.892l-1.471 2.957z"/><path data-name="Path 4003" d="M91.047 8.842l2.175 1.894-.278.664h-.074c-.339-.007-.709-.01-1.083 0l-.74-2.558z"/><path data-name="Path 4004" d="M90.988 10.17l.416 1.249a8.451 8.451 0 00-.634.063l.218-1.313z"/><path data-name="Path 4005" d="M90.377 10.467l.034 1.079-.05.011a13.01 13.01 0 00-1.156.317l-.019-1.162h.122l.043-.006h.083l.041-.006h.02l.1-.017h.007l.054-.01h.005l.113-.021.056-.011.055-.011.054-.012.046-.01h.008l.1-.023.048-.012.039-.01h.008l.041-.011.039-.01.039-.012h.005l.038-.012z"/><path data-name="Path 4006" d="M88.466 10.798l.4 1.189q-.348.121-.689.259a10.881 10.881 0 00-1.1.5 1.938 1.938 0 00-.164.1l.221-1.952c.115 0 .227-.008.331-.014.213-.01.579-.036.995-.078z"/><path data-name="Path 4007" d="M85.137 10.761a8.172 8.172 0 001.577.137l-.192 1.2-1.385-1.337z"/><path data-name="Path 4008" d="M84.815 6.242l1.454 1.306a7.963 7.963 0 011.692-.017l.1-1.015q-1.555-.208-3.249-.274z"/><path data-name="Path 4009" d="M84.194 6.222l1.436 1.421a5.9 5.9 0 00-1.846.645 1.11 1.11 0 00-.536.662.894.894 0 00-.03.258l-3.309-2.9q2.233-.138 4.285-.09z"/><path data-name="Path 4010" d="M82.689 9.277l-.66 1.589 3.7.97-3.043-2.559z"/><path data-name="Path 4011" d="M79.032 6.374l3.2 2.593-.863 2.15 4.332 1.129-6.652 1.184-1.958-6.876q.985-.1 1.939-.178z"/><path data-name="Path 4012" d="M76.465 6.621l2.017 6.258-5.1-5.528a19.8 19.8 0 003.085-.73z"/><path data-name="Path 4013" d="M72.994 7.405l3.163 3.827-5.072 2.327.287-6.1a4.316 4.316 0 001.622-.054z"/><path data-name="Path 4014" d="M76.692 11.627l1.864 1.955-.346 3.113-.1.121c-1.324 1.083-3.09 2.739-3.546 4.184l2.125-9.373zm-2.218 9.792z"/><path data-name="Path 4015" d="M78.967 13.877l-.285 2.469.068-.034c.119-.092.23-.175.331-.25 1.381-1.031 4.237-2.928 5.977-3.074a1.436 1.436 0 011.215.431c.015.015.029.032.043.048a.669.669 0 00-.38-.642 5.4 5.4 0 00-2.236.149c-.847.193-4.731.9-4.731.9z"/><path data-name="Path 4016" d="M86.474 15.646a16.327 16.327 0 01-.92 1.828c-.111.183-.225.363-.345.541.265-.105 3.01-1.2 5.278-2.27 2.386-1.125 4.076-1.936 4.48-2.442s.935-1.151.935-1.151a25.129 25.129 0 00-5.417-.045 14.174 14.174 0 00-3.133 1.13c-.973.529-.5 1.57-.877 2.41z"/><path data-name="Path 4017" d="M85.846 18.496s-.95.286-1.335.466a16.233 16.233 0 01-1.244 1.372 9.415 9.415 0 01-1.026.877 9.684 9.684 0 01-1.52.964 9.43 9.43 0 01-2.194.917l-.261.087c-.034.4-.081 1.8.938 1.93a5.935 5.935 0 004.949-2.8 9.495 9.495 0 001.692-3.809z"/><path data-name="Path 4018" d="M75.026 21.774c.1 1.017.49 1.586 1.569 1.308a14.121 14.121 0 006.278-3.148 13.145 13.145 0 003.088-4.517c.34-.757.217-1.956-.857-1.866-2.624.22-10.321 5.808-10.078 8.223z"/><path data-name="Path 4019" d="M73.807 21.927a.924.924 0 01-.048 1.056c-.418.456-3.718 1.87-4.89 3.137-.129.139-.284.325-.458.543a39.967 39.967 0 00-4.031 5.765s2.009-3.688 1.009-3.83-2.763 1.837-3.724 2.781-1.852 1.013-1.778-.771.449-6.137 1.425-7.433a3.455 3.455 0 014.015-.823c.916.54 2.387 2.194 3.467 2.022a7.376 7.376 0 002.727-.838c.813-.477 2.287-1.608 2.287-1.608z"/><path data-name="Path 4020" d="M63.197 12.942l1.2 3.377-4.246 1.712a45.079 45.079 0 013.05-5.089z"/><path data-name="Path 4021" d="M63.517 12.65l1.222 3.538 5.932-2.415.2-6.314-5.2 2.442q-.676.737-1.321 1.542l-.843 1.209z"/><path data-name="Path 4022" d="M69.108 5.908l1.554 1.044-5.14 2.478-.221-.96 1.036-.963 2.771-1.6z"/><path data-name="Path 4023" d="M68.697 5.559l-2.276 1.337-.582-3.7 2.859 2.366z"/><path data-name="Path 4024" d="M65.298 3.282l.614 3.828-1.279-.392-1.2-2.071 1.868-1.366z"/><path data-name="Path 4025" d="M65.202 8.188l.8-.729-1.256-.358.454 1.087z"/><path data-name="Path 4026" d="M65.438 2.681l-2.189 1.368S60.694.374 60.887.083s1.553.214 2.4.905 2.15 1.692 2.15 1.692z"/><path data-name="Path 4027" d="M56.558 33.293l1.745.973a16.334 16.334 0 01-1.476 1.4 20.562 20.562 0 01-.27-2.373z"/><path data-name="Path 4028" d="M59.536 35.046l2.15 4.261a12.555 12.555 0 01.709-2.646l-2.859-1.615z"/><path data-name="Path 4029" d="M56.906 36.082l.674-.37a21.191 21.191 0 00.858 3.217c.513 1.313.653 1.6.653 1.6l-.233.826a17.007 17.007 0 01-1.952-5.271z"/><path data-name="Path 4030" d="M59.426 40.425l-.231 1.385 2.864.625-1.6-1.988-1.029-.022z"/><path data-name="Path 4031" d="M59.464 42.319l3.051.534.856 3.393-3.54-3.409q-.189-.256-.367-.517z"/><path data-name="Path 4032" d="M62.881 43.132l.926 3.481 1.085-1.083a8.37 8.37 0 01-2.011-2.4z"/><path data-name="Path 4033" d="M65.077 45.74l-1.029 1.079 2.968 1.962 2.3-3.028a7.418 7.418 0 01-4.235-.014z"/><path data-name="Path 4034" d="M69.832 45.592l2.329 3.627a5.422 5.422 0 01.259 3.385c-.522 1.606.306 4.6.306 4.6s-2.891-2.384-3.457-4.057a11.046 11.046 0 00-1.5-3.413 5.8 5.8 0 01-.507-.512l2.567-3.634z"/><path data-name="Path 4035" d="M70.075 45.289l2.153 3.257a3.045 3.045 0 001.75-2.446c-.049-1.3-.313-2.247.165-3.093a17.185 17.185 0 00.792-1.6l-4.859 3.877z"/><path data-name="Path 4036" d="M89.54 8.605c1.125.78 1.233.993.833 1.257s-4.189.774-5.506.232-1.237-1.059-.8-1.32c1.347-.8 4.224-1.032 5.469-.168z"/></g><g data-name="Group 3692"><path data-name="Path 4037" d="M4.239 39.076c-.209 0-.449-.006-.718-.019s-.55-.037-.839-.074-.578-.083-.866-.138a4.322 4.322 0 01-.8-.23A1.372 1.372 0 01.002 37.27v-8.61a.811.811 0 01.212-.6 1.511 1.511 0 01.581-.341 7.7 7.7 0 011.677-.341q.885-.083 1.585-.083a9.081 9.081 0 012.608.35 5.372 5.372 0 012.009 1.078 4.866 4.866 0 011.3 1.834 7.681 7.681 0 01.018 5.189 4.957 4.957 0 01-1.26 1.846 5.276 5.276 0 01-1.963 1.116 8.217 8.217 0 01-2.53.368zm-1.032-2.692q.2.038.5.065c.2.019.38.028.553.028a3.457 3.457 0 001.152-.184 2.314 2.314 0 00.9-.572 2.643 2.643 0 00.59-1 4.6 4.6 0 00.211-1.484 3.568 3.568 0 00-.774-2.5 2.676 2.676 0 00-2.064-.839q-.258 0-.525.019t-.544.055z"/><path data-name="Path 4038" d="M16.768 39.076a6.456 6.456 0 01-2.018-.3 4.574 4.574 0 01-1.622-.912 4.219 4.219 0 01-1.084-1.532 5.42 5.42 0 01-.4-2.157 5.036 5.036 0 01.4-2.091 4.045 4.045 0 012.516-2.267 5.505 5.505 0 011.7-.267 5.116 5.116 0 011.778.295 4.273 4.273 0 011.383.811 3.609 3.609 0 01.9 1.235 3.789 3.789 0 01.322 1.567 1.258 1.258 0 01-.35.958 1.752 1.752 0 01-.977.424l-4.552.682a1.53 1.53 0 00.829.912 3.257 3.257 0 001.438.3 5.157 5.157 0 001.429-.193 4.574 4.574 0 001.1-.451 1.537 1.537 0 01.5.516 1.352 1.352 0 01-.571 1.935 4.115 4.115 0 01-1.327.424 9.433 9.433 0 01-1.394.111zm-.516-7.244a1.828 1.828 0 00-.765.147 1.545 1.545 0 00-.525.378 1.569 1.569 0 00-.3.516 2.093 2.093 0 00-.12.581l3.151-.516a1.393 1.393 0 00-.405-.737 1.358 1.358 0 00-1.032-.369z"/><path data-name="Path 4039" d="M27.829 33.104a1.027 1.027 0 00-.322-.838 1.329 1.329 0 00-.876-.268 2.921 2.921 0 00-.728.092 1.853 1.853 0 00-.618.276v6.4a4.273 4.273 0 01-.58.111 5.932 5.932 0 01-.821.055 4.334 4.334 0 01-.728-.055 1.24 1.24 0 01-.543-.221 1.069 1.069 0 01-.341-.451 1.965 1.965 0 01-.12-.746v-5.53a1.418 1.418 0 01.212-.811 2.22 2.22 0 01.581-.571 5.276 5.276 0 011.575-.719 7.539 7.539 0 012.111-.276 4.975 4.975 0 013.207.912 3.084 3.084 0 011.125 2.534v5.769a4.31 4.31 0 01-.581.111 5.929 5.929 0 01-.82.055 4.324 4.324 0 01-.728-.055 1.239 1.239 0 01-.544-.221 1.063 1.063 0 01-.341-.451 1.95 1.95 0 01-.12-.746z"/><path data-name="Path 4040" d="M36.033 35.703a.758.758 0 00.3.682 1.533 1.533 0 00.858.2 3.738 3.738 0 00.571-.046 3.176 3.176 0 00.516-.12 2.28 2.28 0 01.286.452 1.373 1.373 0 01.12.6 1.426 1.426 0 01-.525 1.143 2.931 2.931 0 01-1.852.442 3.772 3.772 0 01-2.5-.737 2.967 2.967 0 01-.876-2.4V28.03q.2-.055.581-.12a4.788 4.788 0 01.8-.064 2.363 2.363 0 011.263.285 1.336 1.336 0 01.451 1.207v1.18h2.415a3.118 3.118 0 01.212.507 2.109 2.109 0 01.1.673 1.275 1.275 0 01-.286.931 1.032 1.032 0 01-.764.286h-1.678z"/><path data-name="Path 4041" d="M43.959 29.547a7.566 7.566 0 011.815.2 4.051 4.051 0 011.4.618 2.79 2.79 0 01.894 1.05 3.365 3.365 0 01.313 1.5v4.129a1.146 1.146 0 01-.267.784 2.681 2.681 0 01-.636.525 6.59 6.59 0 01-3.373.719 7.743 7.743 0 01-1.76-.184A4.164 4.164 0 0141 38.334a2.533 2.533 0 01-.867-.94 2.786 2.786 0 01-.3-1.327 2.5 2.5 0 01.755-1.954 4.077 4.077 0 012.341-.848l2.415-.258v-.129a.791.791 0 00-.47-.765 3.171 3.171 0 00-1.355-.23 6.271 6.271 0 00-1.364.147 7.289 7.289 0 00-1.2.369 1.27 1.27 0 01-.406-.507 1.608 1.608 0 01-.166-.709 1.179 1.179 0 01.23-.764 1.78 1.78 0 01.71-.489 5.557 5.557 0 011.262-.295 10.958 10.958 0 011.374-.088zm.147 7.243a4.178 4.178 0 00.691-.064 1.694 1.694 0 00.562-.175v-1.474l-1.327.111a2.041 2.041 0 00-.848.221.6.6 0 00-.332.553.732.732 0 00.286.6 1.56 1.56 0 00.968.228z"/><path data-name="Path 4042" d="M53.488 38.763c-.136.025-.335.058-.6.1a5.021 5.021 0 01-.8.064 4.326 4.326 0 01-.728-.055 1.24 1.24 0 01-.544-.221 1.063 1.063 0 01-.341-.451 1.95 1.95 0 01-.12-.746v-10.69q.2-.037.6-.1a5.005 5.005 0 01.8-.064 4.339 4.339 0 01.728.055 1.24 1.24 0 01.544.221 1.062 1.062 0 01.341.451 1.951 1.951 0 01.12.747z"/><path data-name="Path 4043" d="M75.605 30.34a4.647 4.647 0 01.636-.211 3.254 3.254 0 01.875-.12 3.173 3.173 0 011.29.23 1.01 1.01 0 01.627.673q.2.756.378 1.41t.341 1.253q.166.6.323 1.189t.3 1.235h.092q.166-1.124.295-2.147t.24-2.009l.221-1.954q.11-.968.221-1.963a2.9 2.9 0 011.456-.387 2.271 2.271 0 011.18.295 1.062 1.062 0 01.5 1 11.3 11.3 0 01-.083 1.152q-.083.747-.221 1.669t-.323 1.935q-.184 1.014-.387 1.936t-.415 1.668a8.5 8.5 0 01-.4 1.152 2.127 2.127 0 01-.9.424 5.02 5.02 0 01-1.29.166 4.088 4.088 0 01-1.465-.23 1.09 1.09 0 01-.728-.654q-.24-.737-.516-1.751t-.59-2.23q-.258 1.2-.534 2.341t-.5 1.935a2.083 2.083 0 01-.829.424 4.22 4.22 0 01-1.216.166 4.607 4.607 0 01-1.5-.23 1.4 1.4 0 01-.876-.654 6.444 6.444 0 01-.359-.987q-.193-.654-.4-1.493t-.415-1.815q-.211-.977-.387-1.954t-.323-1.908q-.147-.93-.221-1.7a2.581 2.581 0 01.718-.442 2.445 2.445 0 011-.2 2.024 2.024 0 011.152.3 1.421 1.421 0 01.562 1.023q.295 1.88.488 3.133t.314 2.055q.119.8.175 1.244c.036.295.074.528.111.7h.092q.166-.737.314-1.364t.3-1.262q.156-.636.323-1.364t.354-1.679z"/><path data-name="Path 4044" d="M94.958 38.763a4.263 4.263 0 01-.58.111 5.937 5.937 0 01-.821.055 4.326 4.326 0 01-.728-.055 1.239 1.239 0 01-.544-.221 1.063 1.063 0 01-.341-.451 1.95 1.95 0 01-.12-.746v-4.092a1.293 1.293 0 00-.378-1.06 1.439 1.439 0 00-.931-.3 2.607 2.607 0 00-.7.092 2 2 0 00-.535.221v6.451a4.263 4.263 0 01-.58.111 5.938 5.938 0 01-.821.055 4.338 4.338 0 01-.728-.055 1.24 1.24 0 01-.543-.221 1.07 1.07 0 01-.341-.451 1.965 1.965 0 01-.12-.746V26.764q.2-.037.6-.1a5.006 5.006 0 01.8-.064 4.345 4.345 0 01.728.055 1.243 1.243 0 01.544.221 1.068 1.068 0 01.341.451 1.966 1.966 0 01.12.747v1.806a6.572 6.572 0 01.728-.212 4.539 4.539 0 011.078-.12 4.133 4.133 0 012.848.912 3.457 3.457 0 011.022 2.719z"/><path data-name="Path 4045" d="M100.58 29.547a7.57 7.57 0 011.815.2 4.056 4.056 0 011.4.618 2.782 2.782 0 01.894 1.05 3.365 3.365 0 01.314 1.5v4.129a1.142 1.142 0 01-.268.784 2.664 2.664 0 01-.636.525 6.585 6.585 0 01-3.373.719 7.74 7.74 0 01-1.76-.184 4.167 4.167 0 01-1.346-.554 2.531 2.531 0 01-.866-.94 2.787 2.787 0 01-.3-1.327 2.5 2.5 0 01.755-1.954 4.075 4.075 0 012.341-.848l2.414-.258v-.129a.791.791 0 00-.47-.765 3.17 3.17 0 00-1.355-.23 6.266 6.266 0 00-1.364.147 7.32 7.32 0 00-1.2.369 1.275 1.275 0 01-.406-.507 1.6 1.6 0 01-.166-.709 1.179 1.179 0 01.231-.764 1.778 1.778 0 01.709-.489 5.572 5.572 0 011.262-.295 10.975 10.975 0 011.375-.088zm.147 7.243a4.165 4.165 0 00.691-.064 1.694 1.694 0 00.563-.175v-1.474l-1.327.111a2.041 2.041 0 00-.848.221.6.6 0 00-.332.553.732.732 0 00.286.6 1.561 1.561 0 00.967.228z"/><path data-name="Path 4046" d="M110.108 38.763c-.135.025-.334.058-.6.1a5.029 5.029 0 01-.8.064 4.326 4.326 0 01-.728-.055 1.239 1.239 0 01-.544-.221 1.07 1.07 0 01-.341-.451 1.965 1.965 0 01-.12-.746v-10.69q.2-.037.6-.1a5.006 5.006 0 01.8-.064 4.345 4.345 0 01.728.055 1.239 1.239 0 01.544.221 1.063 1.063 0 01.341.451 1.965 1.965 0 01.12.747z"/><path data-name="Path 4047" d="M116.815 39.076a6.451 6.451 0 01-2.018-.3 4.563 4.563 0 01-1.622-.912 4.213 4.213 0 01-1.085-1.532 5.419 5.419 0 01-.4-2.157 5.035 5.035 0 01.4-2.091 4.043 4.043 0 012.516-2.267 5.5 5.5 0 011.7-.267 5.121 5.121 0 011.778.295 4.276 4.276 0 011.382.811 3.609 3.609 0 01.9 1.235 3.789 3.789 0 01.322 1.567 1.257 1.257 0 01-.35.958 1.752 1.752 0 01-.977.424l-4.553.682a1.53 1.53 0 00.83.912 3.253 3.253 0 001.438.3 5.153 5.153 0 001.428-.193 4.561 4.561 0 001.1-.451 1.544 1.544 0 01.5.516 1.353 1.353 0 01-.572 1.935 4.1 4.1 0 01-1.327.424 9.432 9.432 0 01-1.39.111zm-.516-7.244a1.824 1.824 0 00-.765.147 1.54 1.54 0 00-.526.378 1.569 1.569 0 00-.3.516 2.092 2.092 0 00-.12.581l3.152-.516a1.4 1.4 0 00-.405-.737 1.359 1.359 0 00-1.032-.369z"/></g></g></svg>